# xmcd CD database file
#
# Track frame offsets:
#	150
#	20900
#	44250
#	62243
#	76785
#	93709
#	119665
#	143808
#	159497
#	193984
#	209170
#	231197
#	280620
#
# Disc length: 4105 seconds
#
# Revision: 6
# Processed by: cddbd v1.5.2PL0 Copyright (c) Steve Scherf et al.
# Submitted via: CDex 1.83
#
DISCID=c510070d
DTITLE=Jorma Kaukonen - Too Many Years...
DYEAR=1998
DGENRE=Blues
TTITLE0=Fools Blues
TTITLE1=Big Town
TTITLE2=Too Many Years
TTITLE3=Home of the Blues
TTITLE4=Nine Pound Hammer
TTITLE5=Gypsy Fire
TTITLE6=You Got To Move
TTITLE7=Larue Larue
TTITLE8=Man for All Seasons
TTITLE9=Heaven on Earth
TTITLE10=Say No to the Devil
TTITLE11=Hypnotation Blues
TTITLE12=Friend of the Devil
EXTD=YEAR: 1998
EXTT0=
EXTT1=
EXTT2=
EXTT3=
EXTT4=
EXTT5=
EXTT6=
EXTT7=
EXTT8=
EXTT9=
EXTT10=
EXTT11=
EXTT12=
PLAYORDER=
